<svg width="47" height="54" viewBox="0 0 47 54" fill="none" xmlns="http://www.w3.org/2000/svg">
<g id="Layer_1" clip-path="url(#clip0_168_254)">
<path id="Vector" d="M20.2229 53.7955C19.6177 53.7955 19.0207 53.6605 18.4402 53.3945C16.0359 52.29 14.6566 48.5877 14.6566 43.2368C14.6566 33.0586 16.4887 21.8455 30.0708 15.8645C30.6595 15.6068 31.3883 15.3695 32.1581 15.12C33.702 14.6209 35.4518 14.0523 36.4481 13.1318C36.8804 12.7309 36.9462 12.0477 36.6045 11.5445C34.3937 8.28818 26.6331 5.79682 23.1583 5.24454C22.2526 5.07682 21.3221 4.99091 20.3999 4.99091C13.7303 4.99091 7.76063 9.42545 5.88326 15.7786C4.76343 19.1332 4.19528 23.0482 4.15823 27.7405C4.13764 30.3341 4.15823 33.8686 4.18293 37.6118C4.21175 42.3409 4.24468 47.2336 4.19528 51.2427C4.18704 52.0773 3.28953 52.1714 2.90253 52.1714C2.43731 52.1714 1.9515 52.0486 1.6386 51.8482C0.107069 50.7682 0.172942 48.3095 0.234697 46.1373C0.247048 45.7405 0.255282 45.3477 0.255282 44.9755C0.255282 42.9177 0.255282 41.1668 0.263516 39.4241C0.27175 37.5873 0.275867 35.7627 0.27175 33.5945V33.3573C0.251165 26.1695 0.23058 18.0205 2.5567 11.7C5.20395 4.49591 10.5273 0.748635 18.8231 0.241362C19.2307 0.216817 19.6465 0.204544 20.0582 0.204544C26.0773 0.204544 31.7135 2.82273 35.9499 5.10136C35.9829 5.11773 36.0076 5.13409 36.0405 5.15454C36.4975 5.44909 37.2427 5.87454 38.1072 6.36954C41.2279 8.15318 47.0412 11.475 46.7942 13.1973C46.6748 13.7414 46.1807 14.2977 45.7073 14.8336C45.5755 14.9809 45.4479 15.1241 45.3285 15.2673C42.9406 17.6727 42.8295 20.6264 42.9324 24.5373C42.9777 26.1982 43.0147 27.8836 43.0559 29.5855C43.1918 35.2636 43.3318 41.1341 43.5994 46.9473C43.694 48.9886 42.7842 51.1814 40.8615 51.4309C40.8121 51.4391 40.7668 51.4391 40.7216 51.4391C40.1946 51.4391 39.787 51.0382 39.7746 50.5064C39.7088 47.5036 39.6635 43.8423 39.6223 40.2995C39.5729 36.3682 39.5276 32.6577 39.4576 30.105C39.2477 22.4427 38.6301 21.7391 37.1315 20.7491C36.4893 20.3236 35.6823 20.1109 34.7354 20.1109C31.9111 20.1109 28.7369 21.9682 27.8311 22.5368C23.0224 25.5641 20.4452 30.6491 19.4777 39.0314C19.276 40.7864 19.103 46.3459 20.3793 47.7695C20.5934 48.0068 20.8404 48.1295 21.1163 48.1295C21.8326 48.1295 22.6643 47.2827 23.6606 45.5441C26.6701 40.2832 26.6701 35.3168 26.6701 30.9355C26.6701 29.3523 27.2918 28.5218 27.9052 28.5218C28.6834 28.5218 29.6138 29.8268 29.8155 32.6864C30.0708 36.2864 30.0008 43.1673 26.6496 48.7759C24.7145 52.0118 22.4337 53.7914 20.2229 53.7914V53.7955Z" fill="#F5F5F5"/>
<path id="Vector_2" d="M20.0542 0.409091C26.028 0.409091 31.6313 3.015 35.8471 5.28136C35.8718 5.29364 35.8965 5.31 35.9212 5.32636C36.3823 5.625 37.1275 6.05045 37.9962 6.54545C40.8493 8.17364 46.7778 11.5609 46.5843 13.1523C46.4691 13.6555 45.9956 14.1873 45.5427 14.6986C45.4151 14.8418 45.2916 14.985 45.1722 15.1241C42.5414 17.7914 42.6279 21.2236 42.7185 24.5455C42.7637 26.2064 42.8008 27.8877 42.842 29.5855C42.9778 35.2677 43.1219 41.1423 43.3854 46.9595C43.476 48.9068 42.6238 50.9973 40.8246 51.2305C40.7876 51.2345 40.7464 51.2386 40.7093 51.2386C40.2894 51.2386 39.9765 50.9318 39.9683 50.5064C39.9024 47.5036 39.8571 43.8382 39.816 40.2914C39.7665 36.3641 39.7213 32.6536 39.6513 30.1009C39.4413 22.3364 38.7949 21.6082 37.2346 20.5814C36.5553 20.1355 35.7113 19.9064 34.7273 19.9064C31.8454 19.9064 28.63 21.7882 27.7119 22.365C22.8456 25.425 20.2395 30.5591 19.2637 39.0109C19.0497 40.8641 18.8809 46.4155 20.2189 47.9086C20.5359 48.2605 20.8776 48.3382 21.1082 48.3382C21.9151 48.3382 22.7838 47.4832 23.8336 45.6464C26.872 40.3405 26.872 35.3455 26.872 30.9395C26.872 29.5568 27.3949 28.7305 27.9013 28.7305C28.4735 28.7305 29.3999 29.79 29.6057 32.7068C29.861 36.2823 29.791 43.1141 26.4685 48.6777C24.5747 51.8482 22.3556 53.595 20.2189 53.595C19.6466 53.595 19.0744 53.4682 18.5227 53.2145C16.1966 52.1427 14.8626 48.51 14.8626 43.245C14.8626 36.585 15.7972 31.5532 17.7981 27.405C20.2354 22.3609 24.2742 18.6505 30.1533 16.0609C30.7338 15.8073 31.4584 15.57 32.2241 15.3245C33.7886 14.8173 35.5631 14.2445 36.5882 13.2914C37.0946 12.8209 37.1728 12.0273 36.7735 11.4382C34.5009 8.09182 26.8061 5.625 23.1996 5.05227C22.2774 4.88045 21.3346 4.79455 20.3959 4.79455C13.6358 4.79455 7.58373 9.29045 5.68578 15.7132C4.5536 19.0923 3.98545 23.0277 3.94428 27.7445C3.9237 30.3382 3.94428 33.8727 3.96898 37.6159C3.9978 42.345 4.03074 47.2377 3.98133 51.2427C3.9731 51.8727 3.29791 51.9668 2.89444 51.9668C2.47038 51.9668 2.01751 51.8523 1.75402 51.6845C0.304827 50.6618 0.3707 48.2605 0.428338 46.1414C0.440689 45.7364 0.448924 45.3518 0.448924 44.9755C0.448924 42.9177 0.448923 41.1382 0.457158 39.4241C0.465392 37.6241 0.469509 35.7627 0.465392 33.5986V33.3614C0.444806 26.19 0.424221 18.0614 2.73799 11.7736C5.36877 4.65136 10.6303 0.945 18.8356 0.445909C19.239 0.421364 19.6507 0.409091 20.0583 0.409091M20.0542 0C19.6384 0 19.2267 0.0122727 18.8068 0.0368182C-0.123343 1.19455 0.0248695 18.8836 0.0619228 33.5945C0.0742739 37.8205 0.0372206 40.7455 0.0454547 44.9755C0.0413376 47.43 -0.395067 50.6659 1.52347 52.02C1.86518 52.2368 2.39216 52.3759 2.89856 52.3759C3.66432 52.3759 4.38892 52.065 4.39715 51.2468C4.48361 43.9936 4.3107 33.5414 4.3601 27.7445C4.39304 23.7682 4.80886 19.6323 6.0769 15.8359C7.9625 9.46227 13.8951 5.19545 20.3959 5.19545C21.2976 5.19545 22.2074 5.27727 23.1214 5.44909C26.8514 6.04227 34.3156 8.55409 36.4276 11.6632C36.7076 12.0764 36.6705 12.645 36.3 12.9886C34.8673 14.3182 31.7919 14.8827 29.9804 15.6805C17.2052 21.3055 14.4468 31.6432 14.4468 43.2409C14.4468 48.8823 15.9331 52.47 18.3456 53.5827C18.9632 53.865 19.589 54.0041 20.2148 54.0041C22.5491 54.0041 24.8958 52.1059 26.8185 48.8864C30.2974 43.065 30.248 35.955 30.0133 32.6782C29.7951 29.6264 28.7864 28.3214 27.8972 28.3214C27.1314 28.3214 26.4562 29.2909 26.4562 30.9395C26.4562 35.7586 26.3574 40.4018 23.4713 45.4459C22.4503 47.2255 21.6804 47.9291 21.1041 47.9291C19.3543 47.9291 19.3914 41.4736 19.6672 39.06C20.5359 31.5409 22.722 25.9895 27.926 22.7168C29.581 21.6777 32.3765 20.3195 34.7191 20.3195C35.5631 20.3195 36.3494 20.4955 36.9999 20.925C38.4038 21.8536 39.0255 22.4795 39.2355 30.1173C39.3672 34.9855 39.4125 44.2105 39.5525 50.5186C39.5648 51.1732 40.0712 51.6518 40.7052 51.6518C40.7588 51.6518 40.8164 51.6518 40.874 51.6395C42.9531 51.3695 43.8877 49.0582 43.793 46.9432C43.4472 39.3914 43.3113 31.7495 43.1219 24.5373C43.0272 20.97 43.0437 17.8486 45.4727 15.4023C46.045 14.7191 46.8149 14.0032 46.9837 13.23C47.3213 10.8941 38.3503 6.41455 36.1394 4.98682C36.1065 4.96636 36.0736 4.94591 36.0365 4.92545C31.1126 2.27045 25.7234 0 20.0542 0Z" fill="#F5F5F5"/>
</g>
<defs>
<clipPath id="clip0_168_254">
<rect width="47" height="54" fill="white"/>
</clipPath>
</defs>
</svg>
